<?xml version="1.0" encoding="utf-8"?>
<!-- Generator: Adobe Illustrator 22.0.0, SVG Export Plug-In . SVG Version: 6.00 Build 0)  -->
<svg version="1.1" id="Layer_1" xmlns="http://www.w3.org/2000/svg" xmlns:xlink="http://www.w3.org/1999/xlink" x="0px" y="0px"
	 viewBox="0 0 800 291" style="enable-background:new 0 0 800 291;" xml:space="preserve">
<style type="text/css">
	.st0{fill:#FFFFFF;}
	.st1{fill:#1D1D1B;stroke:#1D1D1B;stroke-miterlimit:10;}
	.st2{fill:url(#SVGID_1_);}
	.st3{fill:url(#SVGID_2_);}
	.st4{fill:url(#SVGID_3_);}
	.st5{fill:url(#SVGID_4_);}
	.st6{fill:#1D1D1B;}
	.st7{fill-rule:evenodd;clip-rule:evenodd;fill:#1D1D1B;}
</style>
<g>
	<path class="st0" d="M363.9,182.9c-0.1-0.4-0.3-0.9-0.3-1.7c0-2.6,0.9-7.5,2.2-11.8c-5.5,5.6-12.6,8.9-16.5,9.2l-1.7,0.1
		c-9.4,0-17.6-7.1-19.5-14.6c-0.8-3-1.2-6.2-1.2-9.4c0-25.3,21.4-58.1,45.6-58.1h0.1c5.2,0,9.4,1.2,12.6,3c4.2,2.6,6.3,6.9,6.3,11.3
		c0,3.3-1.2,6.4-3.4,9.2c-1.6,2-3.7,3.1-5.6,3.1c-2,0-3.9-1-5.8-3.7c-0.1-0.3-0.3-0.5-0.3-0.8s0.1-0.5,0.3-0.8
		c2.1-3,3.9-7.1,3.9-10.1c0-2.5-1.3-4.3-4.9-4.3c-0.9,0-2,0.1-3.1,0.4c-16.9,3.7-32.8,36.8-32.8,56.1c0,2,0.1,3.8,0.5,5.5
		c0.9,4.1,3.9,7.2,8.1,7.2h0.9c12.2-1.4,20.2-16.5,21.4-21c-3.3,0-6-0.4-7.5-0.9c-2.8-1.2-4.7-3.9-4.7-7.1c0-0.7,0.1-1.4,0.4-2.2
		c0.1-0.5,0.7-0.9,1.2-0.9c0.4,0,0.8,0.3,1,0.7c0.9,1.4,3.8,2,7.5,2c6.7,0,15.9-1.7,19.4-2.2h0.5c2.5,0,3.4,2.1,3.4,4.3
		c0,2.4-0.9,4.9-1.7,5c-1.6,0.5-3,0.8-7.9,1c-2.9,7.3-8.4,25.3-9.4,34c-0.1,0.7-0.8,1-1.8,1C368.8,186.5,365,184.9,363.9,182.9z"/>
	<path class="st0" d="M426,172.2c-3.3,0-6.7-0.4-8.1-3.1c-0.8-1.3-1-3.1-1-5.4c0-1.6,0.1-3.3,0.4-5.1c-0.8,1.7-1.8,3.5-3,5.2
		c-2.8,4.5-6,8.3-9,8.4h-1.7c-3.3,0-6.7-0.4-8.1-3.1c-0.8-1.3-1-3.1-1-5.4c0-2.8,0.5-6.3,1.3-9.8c2-9.2,6.7-22.2,8.7-26.4
		c0.5-1,1.7-1.6,3.3-1.6c3.1,0,7.2,2,7.2,3.9l-0.1,0.5c-1.7,4.2-10.2,26.8-10.5,36.2c0,1.8,0.1,3,0.8,3c1.4,0,3.9-1.8,7.3-7.3
		c2.8-4.3,5.8-10.9,9.3-20.5c1.8-5.9,3.9-11.4,5.2-14.3c0.4-1,1.7-1.6,3.3-1.6c3.1,0,7.2,1.8,7.2,3.9l-0.1,0.5
		c-1.7,4.2-10.2,26.8-10.5,36.2c0,1.8,0.1,3,0.9,3c1.7-0.1,4.1-2.9,6.6-6.7c3.7-5.6,7.5-13.6,9.7-18.5c0.3-0.7,0.8-0.8,1.2-0.8
		c0.1,0,0.4,0,0.7,0.1c0.4,0.3,0.7,0.7,0.7,1c0,0.3,0,0.4-0.1,0.7c-2.5,5.4-6.3,13.5-10.2,19.4c-2.9,4.2-5.8,7.2-8.3,7.3H426z"/>
	<path class="st0" d="M449.1,172.2c-3.3,0-6.7-0.4-8.1-3.1c-0.8-1.3-1.2-3.4-1.2-5.8c0-2.8,0.5-6,1.2-9.4c2.1-9.8,6.4-21.5,8.4-26.4
		c0.5-1,1.8-1.6,3.3-1.6c3.1,0,7.2,2,7.2,3.9l-0.1,0.5c-1,2.9-10.2,29-10.2,37c0,1.4,0.3,2.2,1,2.2c4.3-0.1,12.5-16.9,16.1-25.2
		c0.3-0.7,0.7-0.8,1.2-0.8l0.7,0.1c0.4,0.1,0.7,0.5,0.7,1c0,0.3,0,0.4-0.1,0.7c-4.2,9.3-12.2,26.5-18.2,26.8H449.1z M453.9,117.8
		c0-2.1,1.6-7.2,2.4-8.9c0.4-1.2,1.6-1.6,3-1.6c3,0,6.9,2.1,6.9,4.1c0,0.3,0,0.7-0.3,0.9c-0.7,1.2-2.5,5.9-3.4,7.9
		c-0.3,0.7-1.2,0.9-2.2,0.9C457.7,121,453.9,119.5,453.9,117.8z"/>
	<path class="st0" d="M471.6,172.2c-3.1,0-6.2-0.4-7.3-3.1c-0.7-1.4-1-3.5-1-5.9c0-10.2,5.4-27.3,10.2-40.4
		c-2.6-0.1-5.1-0.1-7.2-0.1c-0.8-0.1-1.3-0.8-1.3-1.3c0-0.7,0.5-1.3,1.3-1.3l8.1,0.1c1.7-4.5,3.3-8.3,4.6-11.1
		c0.4-1.2,1.7-1.6,3.3-1.6c3.4,0,8.1,2.1,8.1,4.1l-0.1,0.4c-1.2,2.6-2.4,5.5-3.5,8.7l6.6,0.1c0.8,0,1.3,0.7,1.3,1.3
		c0,0.7-0.5,1.3-1.4,1.3c-2.2-0.1-4.7-0.1-7.5-0.1c-4.1,12.1-8.5,25.6-11.1,36.7c-0.3,0.8-1.4,6.2-1.4,8.5c0,0.9,0.1,1.2,0.5,1.2
		c1.4,0,3.9-3.1,4.9-4.3c4.1-5.5,8.8-15.2,11.4-20.8c0.3-0.7,0.7-0.8,1.2-0.8c0.1,0,0.4,0,0.7,0.1c0.4,0.3,0.7,0.7,0.7,1.2
		c0,0,0,0.3-0.1,0.5c-2.8,6.3-7.6,16-12.1,21.9c-1.6,1.8-4.1,4.7-6.6,4.9H471.6z"/>
	<path class="st0" d="M517.3,172.2c-3.3,0-6.7-0.4-8.1-3.1c-0.8-1.3-1-3.3-1-5.5c0-1.3,0.1-2.6,0.3-4.2c-3,5.2-7.2,10.4-12.3,10.4
		h-0.3c-6.3-0.1-8.9-5.4-8.9-12.2c0-13,9.4-31.5,22.4-31.5h0.1c3.4,0,6.2,1.2,7.7,3.7l0.9-2.4c0.7-1,1.8-1.4,3.4-1.4
		c3,0,7.1,1.8,7.1,3.9l-0.1,0.5c-1.7,4.2-10.2,26.8-10.5,36.2c0,1.8,0.1,3,0.8,3c4.3-0.1,12.6-16.9,16.4-25.2
		c0.3-0.7,0.7-0.8,1.2-0.8l0.7,0.1c0.4,0.1,0.7,0.5,0.7,1c0,0.3,0,0.3-0.1,0.7c-4.3,9.3-12.5,26.5-18.6,26.8H517.3z M511.6,145.2
		c0.7-1.7,1.8-5.2,1.8-8.1c0-1.8-0.5-3.3-2-3.7l-0.8-0.1c-5.9,0-13.4,17.8-13.4,25.6c0,2.2,0.7,3.5,2,3.5
		C503.2,162.2,510.3,148.4,511.6,145.2z"/>
	<path class="st0" d="M553.5,172.2c-3.1,0-7.7-0.1-9.3-3.1c-0.7-1.3-1-3.1-1-5.2c0-9.8,6.6-26.1,8.9-33.2c-1.7,0.1-4.1,0.8-6.3,0.8
		c-0.7,0-1.4,0-2.1-0.3c-2,5.1-3.1,7.7-6.2,14.3c-0.1,0.4-0.7,0.8-1,0.8c-0.3,0-0.4,0-0.7-0.1c-0.4-0.1-0.8-0.4-0.8-1.2
		c0-0.1,0-0.3,0.1-0.5c3.1-6.9,4.1-9,6.3-14.4c-1.2-0.9-1.7-2.2-1.7-3.7c0-1.8,0.7-3.8,1.3-5.5c0.4-1,1.8-1.4,3.1-1.4
		c1.6,0,3.3,0.5,3.3,1.6l-0.1,0.4c-0.5,1.8-1.6,4.9-2,5.8c3.5-0.1,6.6-1.2,9.3-1.2c3.3,0,6.6,2.5,7.1,5.9l0.1,0.9c0,2.1-1,4.9-2.5,9
		c-2.1,5.9-6.3,17.6-6.3,24.1l0.3,2.2c0.3,1.2,0.8,1.6,1.4,1.6c1.7,0,4.2-3,4.9-4.1c2.5-3.7,5.8-10.2,10.8-21.2
		c0.3-0.5,0.7-0.8,1-0.8c0.4,0,0.7,0.1,0.9,0.3c0.3,0.1,0.5,0.5,0.5,1c0,0.1,0,0.3-0.1,0.5c-5,11.1-8.3,17.8-10.9,21.6
		c-2.9,4.2-4.7,5.1-7.1,5.1H553.5z"/>
	<path class="st0" d="M575.2,172.2c-3.1,0-6.2-0.4-7.5-3.1c-0.7-1.4-0.9-3.4-0.9-5.6c0-16,13.5-49.6,15.6-54.4c0.7-1,2-1.6,3.5-1.6
		c3.4,0,7.7,2.2,7.7,4.1l-0.1,0.4c-1.6,4.2-15.3,40.3-16.8,53.8l-0.1,2.6c0,0.8,0,1.3,0.3,1.3h0.3c1.7,0,4.2-3.4,5-4.5
		c4.1-5.6,8.5-15.2,11.1-20.7c0.3-0.7,0.7-0.8,1.2-0.8c0.1,0,0.4,0,0.7,0.1c0.4,0.3,0.7,0.7,0.7,1c0,0.3,0,0.4-0.1,0.7
		c-2.8,6-7.1,15.2-11.5,21.1c-1.4,2.1-4.3,5.5-7.1,5.6H575.2z"/>
	<path class="st0" d="M595.5,197c-5-0.3-8.5-3.5-8.5-8.7v-0.5c0.1-0.8,0.7-1.2,1.2-1.2h0.3c0.7,0,1.3,0.4,1.3,1
		c0,2.2,1.6,3.5,3.9,3.5h0.1c10.1,0,15.2-22.6,17.4-30.6c-3.1,5.9-7.5,11.5-11.1,11.8h-1.6c-3.3,0-6.7-0.4-8.3-3.1
		c-0.7-1.3-1-3-1-5.2c0-10.6,7.2-30.3,10.1-36.5c0.5-1,1.7-1.4,3.3-1.4c3,0,7.1,1.8,7.1,3.8l-0.1,0.7c-1,2.9-10.6,29.1-10.6,37
		c0,1.4,0.3,2.2,1,2.2c1.4-0.1,3.9-2,7.3-7.3c2.6-4.5,5.8-11,9.2-20.6c1.4-4.6,2.9-9.3,4.6-14c0.4-1.2,1.8-1.7,3.7-1.7
		c3.1,0,7.2,1.6,7.2,3.7l-0.1,0.5c-1.6,4.2-3.3,10-5.2,16.1c-2.5,8.5-6.7,22.2-10,30.4c-3.7,8.9-9,20.1-20.2,20.1H595.5z"/>
</g>
<g>
	<path class="st1" d="M327.5,96.4c-0.1,20-8.3,46.7-20.7,72c0,0,0,0,0,0l0,0c-5,10.3-10.8,20.5-16.9,29.8c-0.9,1.3-1.8,2.7-2.6,4
		c-1.6,2.4-3.2,4.6-4.9,6.9c-16.4,22.2-34.7,37.9-50.1,37.8c-15.9,0-34.9-16.9-51.6-40.4c-0.4-0.6-0.8-1.2-1.2-1.8
		c-6.6-9.5-12.9-20-18.4-30.9c-13.8-27.1-23.3-56.5-23.2-78c0.1-44.2,42.6-55.3,95-55.2C285.1,40.9,327.6,57.2,327.5,96.4z"/>
</g>
<g>
	<linearGradient id="SVGID_1_" gradientUnits="userSpaceOnUse" x1="257.7849" y1="209.2883" x2="261.3225" y2="122.3531">
		<stop  offset="1.081080e-02" style="stop-color:#3A35A8"/>
		<stop  offset="1" style="stop-color:#349FE8"/>
	</linearGradient>
	<path class="st2" d="M305.3,159.5c0,0,1.1,3.6,1.5,9c0,0,0,0,0,0l0,0c-5,10.3-10.8,20.5-16.9,29.8c-0.9,1.3-1.8,2.7-2.6,4
		c-1.6,2.4-3.2,4.6-4.9,6.9c-1.4,0.7-2.9,1.3-4.6,1.9c0,0,0,0,0,0c-16.6,6.3-8.8-8.5-8.6-9c-0.5,0.4-17,10.4-17,10.4s0,0,0,0
		c-1-0.1-24.9-1.8-37.6-31.6c-13-30.5,26.9-53.5,26.9-53.5s-10.6,15.7-0.6,19.9c10,4.2,18-10.5,19.7-22.4s1-20.5,5.5-31.5
		c4.5-11,18-14.1,18-14.1s-11.3,13.8-7.9,25.4c3.3,11.6,14.5,19,18.6,16.7c4-2.2-4.3-15.7-4.5-16c0.5,0.4,15.8,12.7,18,24.6
		c2.2,12.1-13.5,27.9-10.1,33.9C301.4,169.9,305.3,159.5,305.3,159.5z"/>
	
		<linearGradient id="SVGID_2_" gradientUnits="userSpaceOnUse" x1="327.61" y1="212.8305" x2="330.0161" y2="153.7025" gradientTransform="matrix(0.9676 0.2525 -0.2525 0.9676 -8.4376 -84.2633)">
		<stop  offset="1.081080e-02" style="stop-color:#3A35A8"/>
		<stop  offset="1" style="stop-color:#349FE8"/>
	</linearGradient>
	<path class="st3" d="M271.6,116.6c-0.8-1.9-2.3,17.2-15.9,29.2c-13.5,12.1-29.1,12.7-24.5,39.1c4.7,26.9,49.3,31.2,61.5,5.6
		c10.6-22.3-3.6-37-3.5-36.6c0.2,0.5-0.9,19.1-10,19.9c-9,0.8-19.9-3.6-13.4-14C272.4,149.5,279.6,135.3,271.6,116.6z"/>
</g>
<g>
	<linearGradient id="SVGID_3_" gradientUnits="userSpaceOnUse" x1="205.2472" y1="209.6178" x2="208.7406" y2="123.7678">
		<stop  offset="1.081080e-02" style="stop-color:#3A35A8"/>
		<stop  offset="1" style="stop-color:#349FE8"/>
	</linearGradient>
	<path class="st4" d="M253.3,181c-12.7,29.9-36.6,31.6-37.6,31.6c0,0,0,0,0,0s-16.5-10-17-10.4c0.2,0.5,8,15.2-8.4,9
		c0,0-0.1,0-0.1-0.1c0,0,0,0,0,0c-3.5-1.3-6.6-2.9-9.4-4.5c-0.4-0.6-0.8-1.2-1.2-1.8c-6.6-9.5-12.9-20-18.4-30.9
		c-0.4-8.3,1.5-14.5,1.5-14.5s3.9,10.4,7.2,4.5c3.4-5.9-12.3-21.8-10.1-33.9c2.1-11.9,17.5-24.2,18-24.6c-0.2,0.3-8.5,13.8-4.5,16
		c4.1,2.3,15.3-5.1,18.6-16.7c3.3-11.6-7.9-25.4-7.9-25.4s13.5,3.1,18,14.1c4.4,11,3.8,19.5,5.5,31.5s9.7,26.6,19.7,22.4
		c10-4.2-0.6-19.9-0.6-19.9S266.3,150.5,253.3,181z"/>
	
		<linearGradient id="SVGID_4_" gradientUnits="userSpaceOnUse" x1="686.0145" y1="126.0299" x2="688.4206" y2="66.902" gradientTransform="matrix(-0.9676 0.2525 0.2525 0.9676 844.9638 -84.2633)">
		<stop  offset="1.081080e-02" style="stop-color:#3A35A8"/>
		<stop  offset="1" style="stop-color:#349FE8"/>
	</linearGradient>
	<path class="st5" d="M196.2,123.1c0.8-1.9,2.3,17.2,15.9,29.2c13.5,12.1,29.1,12.7,24.5,39.1c-4.7,26.9-49.3,31.2-61.5,5.6
		c-10.6-22.3,3.6-37,3.5-36.6s0.9,19.1,10,19.9c9,0.8,19.9-3.6,13.4-14C195.4,156,188.2,141.8,196.2,123.1z"/>
</g>
<path class="st0" d="M287.2,202.3c-17.6,25.7-38,44.7-55,44.7c-16.3,0-35.8-17.8-52.8-42.1c1.3-9.5,5.2-17.8,8-21.6
	c10.4-14,14.9-22.5,5.4-43.2c-12.3-26.9,13.8-44.5,40.5-44.7v0c0.1,0,0.2,0,0.2,0c0.1,0,0.2,0,0.3,0v0c26.7,0.2,52.8,17.9,40.4,44.7
	c-9.5,20.7-5,29.2,5.4,43.2C282.2,186.7,285.6,193.9,287.2,202.3z"/>
<circle class="st6" cx="232.6" cy="153.7" r="18.5"/>
<circle class="st0" cx="232.6" cy="153.7" r="15.3"/>
<ellipse transform="matrix(0.7465 -0.6654 0.6654 0.7465 -43.3067 193.763)" class="st6" cx="232.6" cy="153.7" rx="14.1" ry="14.1"/>
<rect x="215.7" y="199.6" class="st6" width="33.8" height="8.4"/>
<rect x="222.5" y="66.1" class="st6" width="20.3" height="72.3"/>
<g>
	<rect x="222.6" y="128.6" class="st0" width="20.1" height="1.6"/>
</g>
<g>
	<rect x="222.6" y="113.3" class="st0" width="20.1" height="1.6"/>
</g>
<g>
	<rect x="222.6" y="98" class="st0" width="20.1" height="1.6"/>
</g>
<g>
	<rect x="222.3" y="82.9" class="st0" width="20.1" height="1.6"/>
</g>
<g>
	<rect x="222.6" y="66.6" class="st0" width="20.1" height="1.6"/>
</g>
<g>
	<rect x="222.3" y="50.4" class="st0" width="20.1" height="1.6"/>
</g>
<path class="st6" d="M225.3,170.7v28.9h0.5v-28.7C225.7,170.8,225.5,170.8,225.3,170.7z"/>
<rect x="225.3" y="199.6" class="st0" width="0.5" height="4.2"/>
<rect x="228.8" y="199.6" class="st0" width="0.5" height="4.2"/>
<path class="st6" d="M228.8,171.8v27.8h0.5v-27.7C229.2,171.8,229,171.8,228.8,171.8z"/>
<rect x="232.3" y="199.6" class="st0" width="0.5" height="4.2"/>
<path class="st6" d="M232.6,172.2c-0.1,0-0.2,0-0.3,0v27.5h0.5v-27.5C232.8,172.2,232.7,172.2,232.6,172.2z"/>
<rect x="235.9" y="199.6" class="st0" width="0.5" height="4.2"/>
<path class="st6" d="M235.9,171.9v27.7h0.5v-27.8C236.2,171.8,236,171.8,235.9,171.9z"/>
<path class="st6" d="M239.9,170.7c-0.2,0.1-0.4,0.1-0.5,0.2v28.7h0.5V170.7z"/>
<rect x="239.4" y="199.6" class="st0" width="0.5" height="4.2"/>
<rect x="221.4" y="203.8" class="st0" width="22.4" height="0.7"/>
<path class="st7" d="M263.4,140.1c-0.1-5.1-2.6-9.9-4-14.8c-0.9-2.9-1-5.8-0.8-8.8l-0.9-0.7c-2.6,11.3-5.2,22.6-7.8,33.8
	c-0.1,0.3-0.2,0.7-0.2,1c0.3,0.4,0.6,0.9,0.9,1.3c0.4-1.7,0.8-3.4,1.1-5.1c1.4-6.4,2.9-12.8,4.3-19.2c0-0.1,0-0.2,0.1-0.3
	c3.5,3,5.5,8.1,5.9,12.6c0.2,2.3,0.1,4.6-0.8,6.8c-0.9,2.3-2.4,4.4-3.8,6.4c-0.1,0.2-0.3,0.4-0.4,0.6l0.6,0.4c1.7-2,3.3-4,4.4-6.4
	C263.1,145.3,263.5,142.8,263.4,140.1z"/>
</svg>
