<?xml version="1.0" encoding="utf-8"?>
<!-- Generator: Adobe Illustrator 22.0.0, SVG Export Plug-In . SVG Version: 6.00 Build 0)  -->
<svg version="1.1" id="Layer_1" xmlns="http://www.w3.org/2000/svg" xmlns:xlink="http://www.w3.org/1999/xlink" x="0px" y="0px"
	 viewBox="0 0 792 288" style="enable-background:new 0 0 792 288;" xml:space="preserve">
<style type="text/css">
	.st0{fill:#1D1D1B;}
	.st1{fill:#1D1D1B;stroke:#1D1D1B;stroke-miterlimit:10;}
	.st2{fill:url(#SVGID_1_);}
	.st3{fill:url(#SVGID_2_);}
	.st4{fill:url(#SVGID_3_);}
	.st5{fill:url(#SVGID_4_);}
	.st6{fill:#FFFFFF;}
	.st7{fill-rule:evenodd;clip-rule:evenodd;fill:#1D1D1B;}
</style>
<g>
	<path class="st0" d="M367.8,180c-0.1-0.4-0.2-0.8-0.2-1.6c0-2.4,0.8-6.9,2.1-10.9c-5.1,5.2-11.6,8.2-15.2,8.5l-1.6,0.1
		c-8.7,0-16.2-6.5-18-13.4c-0.7-2.8-1.1-5.7-1.1-8.7c0-23.4,19.7-53.6,42.1-53.6h0.1c4.8,0,8.7,1.1,11.6,2.8
		c3.9,2.4,5.8,6.4,5.8,10.4c0,3-1.1,5.9-3.1,8.5c-1.5,1.8-3.4,2.9-5.2,2.9c-1.8,0-3.6-1-5.3-3.4c-0.1-0.2-0.2-0.5-0.2-0.7
		s0.1-0.5,0.2-0.7c1.9-2.8,3.6-6.5,3.6-9.3c0-2.3-1.2-4-4.5-4c-0.8,0-1.8,0.1-2.9,0.4c-15.6,3.4-30.3,34-30.3,51.8
		c0,1.8,0.1,3.5,0.5,5.1c0.8,3.8,3.6,6.7,7.5,6.7h0.8c11.3-1.3,18.6-15.2,19.7-19.4c-3,0-5.6-0.4-6.9-0.8c-2.5-1.1-4.4-3.6-4.4-6.5
		c0-0.6,0.1-1.3,0.4-2.1c0.1-0.5,0.6-0.8,1.1-0.8c0.4,0,0.7,0.2,1,0.6c0.8,1.3,3.5,1.8,6.9,1.8c6.2,0,14.6-1.6,17.9-2.1h0.5
		c2.3,0,3.1,1.9,3.1,4c0,2.2-0.8,4.5-1.6,4.6c-1.5,0.5-2.8,0.7-7.3,1c-2.7,6.8-7.7,23.4-8.7,31.3c-0.1,0.6-0.7,1-1.7,1
		C372.4,183.3,368.9,181.8,367.8,180z"/>
	<path class="st0" d="M425.2,170.1c-3,0-6.2-0.4-7.5-2.9c-0.7-1.2-1-2.9-1-5c0-1.5,0.1-3,0.4-4.7c-0.7,1.6-1.7,3.3-2.8,4.8
		c-2.5,4.1-5.6,7.6-8.3,7.7h-1.6c-3,0-6.2-0.4-7.5-2.9c-0.7-1.2-1-2.9-1-5c0-2.5,0.5-5.8,1.2-9.1c1.8-8.5,6.2-20.4,8-24.3
		c0.5-1,1.6-1.5,3-1.5c2.9,0,6.7,1.8,6.7,3.6l-0.1,0.5c-1.6,3.9-9.4,24.7-9.7,33.4c0,1.7,0.1,2.8,0.7,2.8c1.3,0,3.6-1.7,6.8-6.8
		c2.5-4,5.3-10,8.6-18.9c1.7-5.4,3.6-10.5,4.8-13.2c0.4-1,1.6-1.5,3-1.5c2.9,0,6.7,1.7,6.7,3.6l-0.1,0.5c-1.6,3.9-9.4,24.7-9.7,33.4
		c0,1.7,0.1,2.8,0.8,2.8c1.6-0.1,3.8-2.7,6.1-6.2c3.4-5.2,6.9-12.6,9-17.1c0.2-0.6,0.7-0.7,1.1-0.7c0.1,0,0.4,0,0.6,0.1
		c0.4,0.2,0.6,0.6,0.6,1c0,0.2,0,0.4-0.1,0.6c-2.3,5-5.8,12.5-9.4,17.9c-2.7,3.9-5.3,6.7-7.6,6.8H425.2z"/>
	<path class="st0" d="M446.5,170.1c-3,0-6.2-0.4-7.5-2.9c-0.7-1.2-1.1-3.1-1.1-5.3c0-2.5,0.5-5.6,1.1-8.7c1.9-9.1,5.9-19.8,7.7-24.3
		c0.5-1,1.7-1.5,3-1.5c2.9,0,6.7,1.8,6.7,3.6l-0.1,0.5c-1,2.7-9.4,26.7-9.4,34.1c0,1.3,0.2,2.1,1,2.1c4-0.1,11.5-15.6,14.9-23.2
		c0.2-0.6,0.6-0.7,1.1-0.7l0.6,0.1c0.4,0.1,0.6,0.5,0.6,1c0,0.2,0,0.4-0.1,0.6c-3.9,8.6-11.3,24.4-16.8,24.7H446.5z M450.9,119.9
		c0-1.9,1.5-6.7,2.2-8.2c0.4-1.1,1.5-1.5,2.8-1.5c2.8,0,6.4,1.9,6.4,3.8c0,0.2,0,0.6-0.2,0.8c-0.6,1.1-2.3,5.4-3.1,7.3
		c-0.2,0.6-1.1,0.8-2.1,0.8C454.4,122.9,450.9,121.4,450.9,119.9z"/>
	<path class="st0" d="M467.3,170.1c-2.9,0-5.7-0.4-6.8-2.9c-0.6-1.3-1-3.3-1-5.4c0-9.4,5-25.2,9.4-37.3c-2.4-0.1-4.7-0.1-6.7-0.1
		c-0.7-0.1-1.2-0.7-1.2-1.2c0-0.6,0.5-1.2,1.2-1.2l7.5,0.1c1.6-4.1,3-7.6,4.2-10.3c0.4-1.1,1.6-1.5,3-1.5c3.1,0,7.5,1.9,7.5,3.8
		l-0.1,0.4c-1.1,2.4-2.2,5.1-3.3,8l6,0.1c0.7,0,1.2,0.6,1.2,1.2c0,0.6-0.5,1.2-1.3,1.2c-2.1-0.1-4.4-0.1-6.9-0.1
		c-3.8,11.1-7.9,23.6-10.3,33.9c-0.2,0.7-1.3,5.7-1.3,7.9c0,0.8,0.1,1.1,0.5,1.1c1.3,0,3.6-2.9,4.5-4c3.8-5.1,8.1-14,10.5-19.2
		c0.2-0.6,0.6-0.7,1.1-0.7c0.1,0,0.4,0,0.6,0.1c0.4,0.2,0.6,0.6,0.6,1.1c0,0,0,0.2-0.1,0.5c-2.5,5.8-7,14.8-11.1,20.2
		c-1.5,1.7-3.8,4.4-6.1,4.5H467.3z"/>
	<path class="st0" d="M509.4,170.1c-3,0-6.2-0.4-7.5-2.9c-0.7-1.2-1-3-1-5.1c0-1.2,0.1-2.4,0.2-3.9c-2.8,4.8-6.7,9.6-11.4,9.6h-0.2
		c-5.8-0.1-8.2-5-8.2-11.3c0-12,8.7-29,20.7-29h0.1c3.1,0,5.7,1.1,7.1,3.4l0.8-2.2c0.6-1,1.7-1.3,3.1-1.3c2.8,0,6.5,1.7,6.5,3.6
		l-0.1,0.5c-1.6,3.9-9.4,24.7-9.7,33.4c0,1.7,0.1,2.8,0.7,2.8c4-0.1,11.6-15.6,15.1-23.2c0.2-0.6,0.6-0.7,1.1-0.7l0.6,0.1
		c0.4,0.1,0.6,0.5,0.6,1c0,0.2,0,0.2-0.1,0.6c-4,8.6-11.5,24.4-17.2,24.7H509.4z M504.2,145.2c0.6-1.6,1.7-4.8,1.7-7.5
		c0-1.7-0.5-3-1.8-3.4l-0.7-0.1c-5.4,0-12.3,16.5-12.3,23.6c0,2.1,0.6,3.3,1.8,3.3C496.4,160.9,503,148.2,504.2,145.2z"/>
	<path class="st0" d="M542.8,170.1c-2.9,0-7.1-0.1-8.6-2.9c-0.6-1.2-1-2.9-1-4.8c0-9.1,6.1-24.1,8.2-30.6c-1.6,0.1-3.8,0.7-5.8,0.7
		c-0.6,0-1.3,0-1.9-0.2c-1.8,4.7-2.9,7.1-5.7,13.2c-0.1,0.4-0.6,0.7-1,0.7c-0.2,0-0.4,0-0.6-0.1c-0.4-0.1-0.7-0.4-0.7-1.1
		c0-0.1,0-0.2,0.1-0.5c2.9-6.4,3.8-8.3,5.8-13.3c-1.1-0.8-1.6-2.1-1.6-3.4c0-1.7,0.6-3.5,1.2-5.1c0.4-1,1.7-1.3,2.9-1.3
		c1.5,0,3,0.5,3,1.5l-0.1,0.4c-0.5,1.7-1.5,4.5-1.8,5.3c3.3-0.1,6-1.1,8.6-1.1c3,0,6,2.3,6.5,5.4l0.1,0.8c0,1.9-1,4.5-2.3,8.3
		c-1.9,5.4-5.8,16.2-5.8,22.3l0.2,2.1c0.2,1.1,0.7,1.5,1.3,1.5c1.6,0,3.9-2.8,4.5-3.8c2.3-3.4,5.3-9.4,9.9-19.6
		c0.2-0.5,0.6-0.7,1-0.7s0.6,0.1,0.8,0.2c0.2,0.1,0.5,0.5,0.5,1c0,0.1,0,0.2-0.1,0.5c-4.6,10.3-7.6,16.5-10,20
		c-2.7,3.9-4.4,4.7-6.5,4.7H542.8z"/>
	<path class="st0" d="M562.9,170.1c-2.9,0-5.7-0.4-6.9-2.9c-0.6-1.3-0.8-3.1-0.8-5.2c0-14.8,12.5-45.7,14.4-50.2
		c0.6-1,1.8-1.5,3.3-1.5c3.1,0,7.1,2.1,7.1,3.8l-0.1,0.4c-1.5,3.9-14.2,37.1-15.5,49.6l-0.1,2.4c0,0.7,0,1.2,0.2,1.2h0.2
		c1.6,0,3.9-3.1,4.6-4.1c3.8-5.2,7.9-14,10.3-19.1c0.2-0.6,0.6-0.7,1.1-0.7c0.1,0,0.4,0,0.6,0.1c0.4,0.2,0.6,0.6,0.6,1
		c0,0.2,0,0.4-0.1,0.6c-2.5,5.6-6.5,14-10.6,19.5c-1.3,1.9-4,5.1-6.5,5.2H562.9z"/>
	<path class="st0" d="M581.6,193c-4.6-0.2-7.9-3.3-7.9-8v-0.5c0.1-0.7,0.6-1.1,1.1-1.1h0.2c0.6,0,1.2,0.4,1.2,1
		c0,2.1,1.5,3.3,3.6,3.3h0.1c9.3,0,14-20.8,16.1-28.2c-2.9,5.4-6.9,10.6-10.3,10.9h-1.5c-3,0-6.2-0.4-7.6-2.9c-0.6-1.2-1-2.8-1-4.8
		c0-9.8,6.7-28,9.3-33.6c0.5-1,1.6-1.3,3-1.3c2.8,0,6.5,1.7,6.5,3.5l-0.1,0.6c-1,2.7-9.8,26.9-9.8,34.1c0,1.3,0.2,2.1,1,2.1
		c1.3-0.1,3.6-1.8,6.8-6.8c2.4-4.1,5.3-10.2,8.5-19c1.3-4.2,2.7-8.6,4.2-12.9c0.4-1.1,1.7-1.6,3.4-1.6c2.9,0,6.7,1.5,6.7,3.4
		l-0.1,0.5c-1.5,3.9-3,9.2-4.8,14.9c-2.3,7.9-6.2,20.5-9.2,28.1c-3.4,8.2-8.3,18.5-18.6,18.5H581.6z"/>
</g>
<g>
	<path class="st1" d="M334.2,100.2c-0.1,18.5-7.7,43.1-19.1,66.5c0,0,0,0,0,0l0,0c-4.6,9.5-9.9,18.9-15.6,27.5
		c-0.8,1.2-1.6,2.5-2.4,3.7c-1.5,2.2-3,4.3-4.5,6.3c-15.1,20.5-32,34.9-46.2,34.9c-14.7,0-32.2-15.6-47.6-37.3
		c-0.4-0.5-0.8-1.1-1.2-1.6c-6.1-8.8-11.9-18.5-17-28.5c-12.8-25-21.5-52.1-21.4-72c0.1-40.8,39.3-51,87.7-50.9
		C295.2,49,334.3,64,334.2,100.2z"/>
</g>
<g>
	<linearGradient id="SVGID_1_" gradientUnits="userSpaceOnUse" x1="269.9294" y1="204.3302" x2="273.1937" y2="124.1093">
		<stop  offset="1.081080e-02" style="stop-color:#3A35A8"/>
		<stop  offset="1" style="stop-color:#349FE8"/>
	</linearGradient>
	<path class="st2" d="M313.8,158.4c0,0,1,3.3,1.4,8.3c0,0,0,0,0,0l0,0c-4.6,9.5-9.9,18.9-15.6,27.5c-0.8,1.2-1.6,2.5-2.4,3.7
		c-1.5,2.2-3,4.3-4.5,6.3c-1.3,0.6-2.7,1.2-4.2,1.8c0,0,0,0,0,0c-15.3,5.9-8.1-7.9-7.9-8.3c-0.5,0.4-15.7,9.6-15.7,9.6s0,0,0,0
		c-1-0.1-23-1.6-34.7-29.2c-12-28.2,24.9-49.3,24.9-49.3s-9.8,14.5-0.5,18.4c9.2,3.9,16.6-9.7,18.2-20.7s1-18.9,5-29.1
		c4.1-10.1,16.6-13,16.6-13s-10.4,12.8-7.3,23.4c3.1,10.7,13.4,17.5,17.2,15.4c3.7-2.1-3.9-14.5-4.1-14.8
		c0.4,0.3,14.6,11.7,16.6,22.7c2,11.2-12.5,25.8-9.4,31.3C310.2,168,313.8,158.4,313.8,158.4z"/>
	
		<linearGradient id="SVGID_2_" gradientUnits="userSpaceOnUse" x1="338.8019" y1="204.1986" x2="341.0222" y2="149.6373" gradientTransform="matrix(0.9676 0.2525 -0.2525 0.9676 -9.0723 -83.318)">
		<stop  offset="1.081080e-02" style="stop-color:#3A35A8"/>
		<stop  offset="1" style="stop-color:#349FE8"/>
	</linearGradient>
	<path class="st3" d="M282.7,118.8c-0.8-1.8-2.1,15.8-14.6,27s-26.8,11.7-22.6,36.1c4.3,24.8,45.5,28.8,56.7,5.2
		c9.8-20.6-3.3-34.2-3.2-33.7c0.2,0.4-0.9,17.6-9.2,18.4c-8.3,0.8-18.3-3.3-12.3-12.9C283.5,149.1,290.1,136.1,282.7,118.8z"/>
</g>
<g>
	<linearGradient id="SVGID_3_" gradientUnits="userSpaceOnUse" x1="221.4493" y1="204.6343" x2="224.6729" y2="125.4147">
		<stop  offset="1.081080e-02" style="stop-color:#3A35A8"/>
		<stop  offset="1" style="stop-color:#349FE8"/>
	</linearGradient>
	<path class="st4" d="M265.8,178.2c-11.7,27.5-33.8,29.1-34.7,29.2c0,0,0,0,0,0s-15.2-9.2-15.7-9.6c0.2,0.4,7.4,14.1-7.8,8.3
		c0,0-0.1,0-0.1,0c0,0,0,0,0,0c-3.3-1.2-6.1-2.6-8.6-4.2c-0.4-0.5-0.8-1.1-1.2-1.6c-6.1-8.8-11.9-18.5-17-28.5
		c-0.4-7.7,1.4-13.4,1.4-13.4s3.6,9.6,6.7,4.1c3.1-5.5-11.4-20.1-9.4-31.3c2-11,16.1-22.3,16.6-22.7c-0.2,0.3-7.8,12.7-4.1,14.8
		c3.8,2.1,14.1-4.7,17.2-15.4c3.1-10.7-7.3-23.4-7.3-23.4s12.5,2.9,16.6,13c4.1,10.1,3.5,18,5,29.1s9,24.6,18.2,20.7
		c9.3-3.9-0.5-18.4-0.5-18.4S277.8,150.1,265.8,178.2z"/>
	
		<linearGradient id="SVGID_4_" gradientUnits="userSpaceOnUse" x1="662.2684" y1="125.996" x2="664.4886" y2="71.4347" gradientTransform="matrix(-0.9676 0.2525 0.2525 0.9676 837.5985 -83.318)">
		<stop  offset="1.081080e-02" style="stop-color:#3A35A8"/>
		<stop  offset="1" style="stop-color:#349FE8"/>
	</linearGradient>
	<path class="st5" d="M213.1,124.8c0.8-1.8,2.1,15.8,14.6,27c12.5,11.1,26.8,11.7,22.6,36.1c-4.3,24.8-45.5,28.8-56.7,5.2
		c-9.8-20.6,3.3-34.2,3.2-33.7c-0.2,0.4,0.9,17.6,9.2,18.4c8.3,0.8,18.3-3.3,12.3-12.9C212.3,155.1,205.7,142.1,213.1,124.8z"/>
</g>
<path class="st6" d="M297.1,197.9c-16.2,23.8-35.1,41.3-50.7,41.3c-15.1,0-33-16.4-48.7-38.9c1.2-8.8,4.8-16.5,7.4-19.9
	c9.6-12.9,13.8-20.7,5-39.8c-11.4-24.8,12.7-41.1,37.3-41.3v0c0.1,0,0.2,0,0.2,0c0.1,0,0.2,0,0.2,0v0c24.6,0.2,48.7,16.5,37.3,41.3
	c-8.8,19.1-4.6,26.9,5,39.8C292.5,183.5,295.6,190.1,297.1,197.9z"/>
<circle class="st0" cx="246.7" cy="153" r="17"/>
<circle class="st6" cx="246.7" cy="153" r="14.1"/>
<ellipse transform="matrix(0.7465 -0.6654 0.6654 0.7465 -39.2917 202.9691)" class="st0" cx="246.7" cy="153" rx="13" ry="13"/>
<rect x="231.1" y="195.4" class="st0" width="31.2" height="7.8"/>
<rect x="237.4" y="72.2" class="st0" width="18.7" height="66.7"/>
<g>
	<rect x="237.4" y="129.9" class="st6" width="18.6" height="1.5"/>
</g>
<g>
	<rect x="237.4" y="115.8" class="st6" width="18.6" height="1.5"/>
</g>
<g>
	<rect x="237.4" y="101.7" class="st6" width="18.6" height="1.5"/>
</g>
<g>
	<rect x="237.2" y="87.7" class="st6" width="18.6" height="1.5"/>
</g>
<g>
	<rect x="237.4" y="72.7" class="st6" width="18.6" height="1.5"/>
</g>
<g>
	<rect x="237.2" y="57.7" class="st6" width="18.6" height="1.5"/>
</g>
<path class="st0" d="M240,168.7v26.7h0.5v-26.5C240.3,168.8,240.1,168.8,240,168.7z"/>
<rect x="240" y="195.4" class="st6" width="0.5" height="3.9"/>
<rect x="243.2" y="195.4" class="st6" width="0.5" height="3.9"/>
<path class="st0" d="M243.2,169.7v25.7h0.5v-25.6C243.5,169.8,243.4,169.8,243.2,169.7z"/>
<rect x="246.5" y="195.4" class="st6" width="0.5" height="3.9"/>
<path class="st0" d="M246.7,170.1c-0.1,0-0.2,0-0.2,0v25.3h0.5v-25.3C246.9,170.1,246.8,170.1,246.7,170.1z"/>
<rect x="249.7" y="195.4" class="st6" width="0.5" height="3.9"/>
<path class="st0" d="M249.7,169.8v25.6h0.5v-25.7C250,169.8,249.9,169.8,249.7,169.8z"/>
<path class="st0" d="M253.4,168.7c-0.2,0.1-0.3,0.1-0.5,0.2v26.5h0.5V168.7z"/>
<rect x="253" y="195.4" class="st6" width="0.5" height="3.9"/>
<rect x="236.4" y="199.3" class="st6" width="20.7" height="0.6"/>
<path class="st7" d="M275.1,140.5c-0.1-4.7-2.4-9.2-3.7-13.6c-0.8-2.7-1-5.3-0.8-8.1l-0.8-0.6c-2.4,10.4-4.8,20.8-7.2,31.2
	c-0.1,0.3-0.1,0.6-0.2,0.9c0.3,0.4,0.6,0.8,0.8,1.2c0.4-1.6,0.7-3.1,1.1-4.7c1.3-5.9,2.7-11.8,4-17.7c0-0.1,0-0.2,0.1-0.2
	c3.3,2.7,5.1,7.4,5.5,11.6c0.2,2.1,0,4.2-0.8,6.2c-0.9,2.1-2.2,4-3.5,5.9c-0.1,0.2-0.3,0.4-0.4,0.6l0.6,0.3c1.6-1.8,3.1-3.7,4.1-5.9
	C274.9,145.3,275.2,143,275.1,140.5z"/>
</svg>
